<?xml version="1.0" encoding="UTF-8" standalone="no"?>
<svg
   xmlns:dc="http://purl.org/dc/elements/1.1/"
   xmlns:cc="http://creativecommons.org/ns#"
   xmlns:rdf="http://www.w3.org/1999/02/22-rdf-syntax-ns#"
   xmlns:svg="http://www.w3.org/2000/svg"
   xmlns="http://www.w3.org/2000/svg"
   xmlns:sodipodi="http://sodipodi.sourceforge.net/DTD/sodipodi-0.dtd"
   xmlns:inkscape="http://www.inkscape.org/namespaces/inkscape"
   version="1.1"
   viewBox="0 0 123.55185 119.84911"
   fill="none"
   stroke="none"
   stroke-linecap="square"
   stroke-miterlimit="10"
   id="svg7218"
   sodipodi:docname="begin-end-exemple.svg"
   width="123.55185"
   height="119.84911"
   inkscape:version="1.0.2-2 (e86c870879, 2021-01-15)">
  <metadata
     id="metadata7224">
    <rdf:RDF>
      <cc:Work
         rdf:about="">
        <dc:format>image/svg+xml</dc:format>
        <dc:type
           rdf:resource="http://purl.org/dc/dcmitype/StillImage" />
        <dc:title></dc:title>
      </cc:Work>
    </rdf:RDF>
  </metadata>
  <defs
     id="defs7222" />
  <sodipodi:namedview
     pagecolor="#ffffff"
     bordercolor="#666666"
     borderopacity="1"
     objecttolerance="10"
     gridtolerance="10"
     guidetolerance="10"
     inkscape:pageopacity="0"
     inkscape:pageshadow="2"
     inkscape:window-width="1920"
     inkscape:window-height="1017"
     id="namedview7220"
     showgrid="false"
     fit-margin-top="0"
     fit-margin-left="0"
     fit-margin-right="0"
     fit-margin-bottom="0"
     inkscape:zoom="2.7156471"
     inkscape:cx="75.046608"
     inkscape:cy="100.49599"
     inkscape:window-x="-8"
     inkscape:window-y="-8"
     inkscape:window-maximized="1"
     inkscape:current-layer="svg7218"
     inkscape:document-rotation="0" />
  <clipPath
     id="p.0">
    <path
       d="M 0,0 H 960 V 720 H 0 Z"
       clip-rule="nonzero"
       id="path7077" />
  </clipPath>
  <path
     fill="#000000"
     fill-opacity="0"
     d="M 0.5171279,-12.560805 H 960.51712 V 707.4392 H 0.5171279 Z"
     fill-rule="evenodd"
     id="path7080" />
  <path
     fill="#cfe2f3"
     d="m 20.871571,0.5 h 82.589859 v 0 c 10.81949,0 19.59042,12.76348 19.59042,28.50803 0,15.74455 -8.77093,28.50803 -19.59042,28.50803 H 20.871571 v 0 C 10.052071,57.51606 1.2811412,44.75258 1.2811412,29.00803 1.2811412,13.26348 10.052071,0.5 20.871571,0.5 Z"
     fill-rule="evenodd"
     id="path7082" />
  <path
     stroke="#000000"
     stroke-width="1"
     stroke-linejoin="round"
     stroke-linecap="butt"
     d="m 20.871571,0.5 h 82.589859 v 0 c 10.81949,0 19.59042,12.76348 19.59042,28.50803 0,15.74455 -8.77093,28.50803 -19.59042,28.50803 H 20.871571 v 0 C 10.052071,57.51606 1.2811412,44.75258 1.2811412,29.00803 1.2811412,13.26348 10.052071,0.5 20.871571,0.5 Z"
     fill-rule="evenodd"
     id="path7084" />
  <path
     fill="#000000"
     d="M 24.225111,38.60803 V 19.5299 h 6.5625 q 2.23437,0 3.40625,0.26563 1.64062,0.375 2.79687,1.375 1.5,1.26562 2.25,3.25 0.75,1.98437 0.75,4.54687 0,2.17188 -0.51562,3.85938 -0.5,1.67187 -1.29688,2.78125 -0.78125,1.09375 -1.73437,1.71875 -0.9375,0.625 -2.28125,0.95312 -1.32813,0.32813 -3.0625,0.32813 z m 2.51562,-2.25 h 4.07813 q 1.89062,0 2.95312,-0.34375 1.07813,-0.35938 1.71875,-1 0.89063,-0.89063 1.39063,-2.40625 0.51562,-1.51563 0.51562,-3.6875 0,-2.98438 -0.98437,-4.59375 -0.98438,-1.60938 -2.39063,-2.15625 -1.01562,-0.39063 -3.26562,-0.39063 h -4.01563 z m 25.89092,-2.20313 2.42187,0.29688 q -0.57812,2.125 -2.125,3.29687 -1.54687,1.17188 -3.95312,1.17188 -3.03125,0 -4.8125,-1.85938 -1.78125,-1.875 -1.78125,-5.25 0,-3.48437 1.79687,-5.40625 1.79688,-1.9375 4.67188,-1.9375 2.76562,0 4.51562,1.89063 1.76563,1.89062 1.76563,5.3125 0,0.20312 -0.0156,0.625 h -10.3125 q 0.14063,2.28125 1.29688,3.5 1.15625,1.20312 2.89062,1.20312 1.28125,0 2.1875,-0.67187 0.92188,-0.6875 1.45313,-2.17188 z m -7.6875,-3.78125 h 7.71875 q -0.15625,-1.75 -0.89063,-2.625 -1.125,-1.34375 -2.90625,-1.34375 -1.60937,0 -2.71875,1.07813 -1.09375,1.07812 -1.20312,2.89062 z m 2.51562,-7.3125 1.73438,-3.64062 h 3.0625 l -2.85938,3.64062 z m 10.52807,20.84375 v -19.125 h 2.14062 v 1.79688 q 0.75,-1.04688 1.70313,-1.57813 0.95312,-0.53125 2.3125,-0.53125 1.76562,0 3.10937,0.92188 1.35938,0.90625 2.04688,2.5625 0.6875,1.65625 0.6875,3.64062 0,2.125 -0.76563,3.82813 -0.75,1.6875 -2.20312,2.59375 -1.45313,0.90625 -3.04688,0.90625 -1.17187,0 -2.10937,-0.48438 -0.92188,-0.5 -1.53125,-1.26562 v 6.73437 z m 2.125,-12.125 q 0,2.65625 1.07812,3.9375 1.09375,1.28125 2.625,1.28125 1.5625,0 2.67188,-1.3125 1.10937,-1.32812 1.10937,-4.10937 0,-2.64063 -1.09375,-3.95313 -1.07812,-1.3125 -2.59375,-1.3125 -1.48437,0 -2.64062,1.40625 -1.15625,1.39063 -1.15625,4.0625 z m 21.73118,5.125 q -1.3125,1.10938 -2.51562,1.5625 -1.20313,0.45313 -2.57813,0.45313 -2.28125,0 -3.5,-1.10938 -1.21875,-1.10937 -1.21875,-2.84375 0,-1.01562 0.45313,-1.85937 0.46875,-0.84375 1.21875,-1.34375 0.75,-0.51563 1.6875,-0.76563 0.6875,-0.1875 2.07812,-0.35937 2.82813,-0.32813 4.17188,-0.79688 0.0156,-0.48437 0.0156,-0.625 0,-1.42187 -0.65625,-2.01562 -0.90625,-0.79688 -2.67187,-0.79688 -1.65625,0 -2.45313,0.59375 -0.78125,0.57813 -1.15625,2.04688 l -2.29687,-0.3125 q 0.3125,-1.46875 1.03125,-2.375 0.71875,-0.90625 2.0625,-1.39063 1.35937,-0.5 3.14062,-0.5 1.78125,0 2.875,0.42188 1.10938,0.42187 1.625,1.04687 0.53125,0.625 0.73438,1.59375 0.125,0.59375 0.125,2.15625 v 3.125 q 0,3.26563 0.14062,4.14063 0.15625,0.85937 0.59375,1.65625 h -2.4375 q -0.375,-0.73438 -0.46875,-1.70313 z m -0.20312,-5.23437 q -1.26563,0.51562 -3.82813,0.89062 -1.4375,0.20313 -2.04687,0.46875 -0.59375,0.25 -0.92188,0.75 -0.3125,0.5 -0.3125,1.125 0,0.9375 0.70313,1.5625 0.70312,0.625 2.07812,0.625 1.34375,0 2.39063,-0.59375 1.0625,-0.59375 1.5625,-1.625 0.375,-0.79687 0.375,-2.34375 z m 5.98118,6.9375 V 24.7799 h 2.10938 v 2.09375 q 0.79687,-1.46875 1.48437,-1.9375 0.6875,-0.46875 1.5,-0.46875 1.1875,0 2.40625,0.76563 l -0.79687,2.17187 q -0.85938,-0.51562 -1.71875,-0.51562 -0.76563,0 -1.39063,0.46875 -0.60937,0.45312 -0.85937,1.28125 -0.39063,1.25 -0.39063,2.73437 v 7.23438 z m 14.017369,-2.09375 0.32812,2.0625 q -0.98437,0.21875 -1.76562,0.21875 -1.26563,0 -1.96875,-0.40625 -0.70313,-0.40625 -0.999999,-1.0625 -0.28125,-0.65625 -0.28125,-2.76563 v -7.95312 h -1.71875 V 24.7799 h 1.71875 v -3.42187 l 2.328119,-1.40625 v 4.82812 h 2.35938 v 1.82813 h -2.35938 v 8.07812 q 0,1 0.125,1.29688 0.125,0.28125 0.40625,0.45312 0.28125,0.17188 0.79688,0.17188 0.39062,0 1.03125,-0.0937 z"
     fill-rule="nonzero"
     id="path7086" />
  <path
     fill="#cfe2f3"
     d="m 20.090431,62.333054 h 82.589859 v 0 c 10.81949,0 19.59042,12.76348 19.59042,28.508028 0,15.744558 -8.77093,28.508038 -19.59042,28.508038 H 20.090431 v 0 C 9.2709307,119.34912 0.5,106.58564 0.5,90.841082 0.5,75.096534 9.2709307,62.333054 20.090431,62.333054 Z"
     fill-rule="evenodd"
     id="path7082-8" />
  <path
     stroke="#000000"
     stroke-width="1"
     stroke-linejoin="round"
     stroke-linecap="butt"
     d="m 20.090431,62.333054 h 82.589859 v 0 c 10.81949,0 19.59042,12.76348 19.59042,28.508028 0,15.744558 -8.77093,28.508038 -19.59042,28.508038 H 20.090431 v 0 C 9.2709307,119.34912 0.5,106.58564 0.5,90.841082 0.5,75.096534 9.2709307,62.333054 20.090431,62.333054 Z"
     fill-rule="evenodd"
     id="path7084-7" />
  <text
     xml:space="preserve"
     style="font-size:26.6667px;line-height:1.25;font-family:Arial;-inkscape-font-specification:Arial;fill:#000000;fill-opacity:1"
     x="40.580383"
     y="99.193916"
     id="text9580"><tspan
       sodipodi:role="line"
       id="tspan9578"
       x="40.580383"
       y="99.193916">Fin</tspan></text>
</svg>
