<?xml version="1.0" encoding="UTF-8" standalone="no"?>
<svg
   xmlns:dc="http://purl.org/dc/elements/1.1/"
   xmlns:cc="http://creativecommons.org/ns#"
   xmlns:rdf="http://www.w3.org/1999/02/22-rdf-syntax-ns#"
   xmlns:svg="http://www.w3.org/2000/svg"
   xmlns="http://www.w3.org/2000/svg"
   xmlns:sodipodi="http://sodipodi.sourceforge.net/DTD/sodipodi-0.dtd"
   xmlns:inkscape="http://www.inkscape.org/namespaces/inkscape"
   version="1.1"
   viewBox="0 0 122.77071 58.01606"
   fill="none"
   stroke="none"
   stroke-linecap="square"
   stroke-miterlimit="10"
   id="svg7218"
   sodipodi:docname="begin-end.svg"
   width="122.77071"
   height="58.01606"
   inkscape:version="1.0.2-2 (e86c870879, 2021-01-15)">
  <metadata
     id="metadata7224">
    <rdf:RDF>
      <cc:Work
         rdf:about="">
        <dc:format>image/svg+xml</dc:format>
        <dc:type
           rdf:resource="http://purl.org/dc/dcmitype/StillImage" />
        <dc:title></dc:title>
      </cc:Work>
    </rdf:RDF>
  </metadata>
  <defs
     id="defs7222" />
  <sodipodi:namedview
     pagecolor="#ffffff"
     bordercolor="#666666"
     borderopacity="1"
     objecttolerance="10"
     gridtolerance="10"
     guidetolerance="10"
     inkscape:pageopacity="0"
     inkscape:pageshadow="2"
     inkscape:window-width="1920"
     inkscape:window-height="1017"
     id="namedview7220"
     showgrid="false"
     fit-margin-top="0"
     fit-margin-left="0"
     fit-margin-right="0"
     fit-margin-bottom="0"
     inkscape:zoom="1.9202525"
     inkscape:cx="-40.990777"
     inkscape:cy="41.895991"
     inkscape:window-x="-8"
     inkscape:window-y="-8"
     inkscape:window-maximized="1"
     inkscape:current-layer="svg7218"
     inkscape:document-rotation="0" />
  <clipPath
     id="p.0">
    <path
       d="M 0,0 H 960 V 720 H 0 Z"
       clip-rule="nonzero"
       id="path7077" />
  </clipPath>
  <path
     fill="#000000"
     fill-opacity="0"
     d="m -210.89521,-252.62097 h 959.99999 v 720 h -959.99999 z"
     fill-rule="evenodd"
     id="path7080" />
  <path
     fill="#cfe2f3"
     d="m 20.09043,0.5 h 82.58986 v 0 c 10.81949,0 19.59042,12.76348 19.59042,28.50803 0,15.74455 -8.77093,28.50803 -19.59042,28.50803 H 20.09043 v 0 C 9.27093,57.51606 0.5,44.75258 0.5,29.00803 0.5,13.26348 9.27093,0.5 20.09043,0.5 Z"
     fill-rule="evenodd"
     id="path7082" />
  <path
     stroke="#000000"
     stroke-width="1"
     stroke-linejoin="round"
     stroke-linecap="butt"
     d="m 20.09043,0.5 h 82.58986 v 0 c 10.81949,0 19.59042,12.76348 19.59042,28.50803 0,15.74455 -8.77093,28.50803 -19.59042,28.50803 H 20.09043 v 0 C 9.27093,57.51606 0.5,44.75258 0.5,29.00803 0.5,13.26348 9.27093,0.5 20.09043,0.5 Z"
     fill-rule="evenodd"
     id="path7084" />
</svg>
