<?xml version="1.0" encoding="UTF-8" standalone="no"?>
<svg
   xmlns:dc="http://purl.org/dc/elements/1.1/"
   xmlns:cc="http://creativecommons.org/ns#"
   xmlns:rdf="http://www.w3.org/1999/02/22-rdf-syntax-ns#"
   xmlns:svg="http://www.w3.org/2000/svg"
   xmlns="http://www.w3.org/2000/svg"
   xmlns:sodipodi="http://sodipodi.sourceforge.net/DTD/sodipodi-0.dtd"
   xmlns:inkscape="http://www.inkscape.org/namespaces/inkscape"
   version="1.1"
   viewBox="0 0 293.832 100.54332"
   fill="none"
   stroke="none"
   stroke-linecap="square"
   stroke-miterlimit="10"
   id="svg7218"
   sodipodi:docname="flowcomment-exemple.svg"
   width="293.832"
   height="100.54332"
   inkscape:version="1.0.2-2 (e86c870879, 2021-01-15)">
  <metadata
     id="metadata7224">
    <rdf:RDF>
      <cc:Work
         rdf:about="">
        <dc:format>image/svg+xml</dc:format>
        <dc:type
           rdf:resource="http://purl.org/dc/dcmitype/StillImage" />
        <dc:title></dc:title>
      </cc:Work>
    </rdf:RDF>
  </metadata>
  <defs
     id="defs7222" />
  <sodipodi:namedview
     pagecolor="#ffffff"
     bordercolor="#666666"
     borderopacity="1"
     objecttolerance="10"
     gridtolerance="10"
     guidetolerance="10"
     inkscape:pageopacity="0"
     inkscape:pageshadow="2"
     inkscape:window-width="1920"
     inkscape:window-height="1017"
     id="namedview7220"
     showgrid="false"
     fit-margin-top="0"
     fit-margin-left="0"
     fit-margin-right="0"
     fit-margin-bottom="0"
     inkscape:zoom="0.96012625"
     inkscape:cx="298.47326"
     inkscape:cy="-59.77866"
     inkscape:window-x="-8"
     inkscape:window-y="-8"
     inkscape:window-maximized="1"
     inkscape:current-layer="svg7218"
     inkscape:document-rotation="0" />
  <clipPath
     id="p.0">
    <path
       d="M 0,0 H 960 V 720 H 0 Z"
       clip-rule="nonzero"
       id="path7077" />
  </clipPath>
  <path
     fill="#000000"
     fill-opacity="0"
     d="M 48.487811,-29.988572 H 1008.4878 V 690.01143 H 48.487811 Z"
     fill-rule="evenodd"
     id="path7080" />
  <path
     fill="#000000"
     fill-opacity="0"
     d="m 0.5,0.5 h 292.832 v 99.54332 H 0.5 Z"
     fill-rule="evenodd"
     id="path7126" />
  <path
     stroke="#000000"
     stroke-width="1"
     stroke-linejoin="round"
     stroke-linecap="butt"
     stroke-dasharray="1, 3"
     d="m 0.5,0.5 h 292.832 v 99.54332 H 0.5 Z"
     fill-rule="evenodd"
     id="path7128" />
  <path
     fill="#000000"
     d="m 20.28126,26.16854 q -1.3125,1.10937 -2.51562,1.5625 -1.20313,0.45312 -2.57813,0.45312 -2.28125,0 -3.5,-1.10937 -1.21875,-1.10938 -1.21875,-2.84375 0,-1.01563 0.45313,-1.85938 0.46875,-0.84375 1.21875,-1.34375 0.75,-0.51562 1.6875,-0.76562 0.6875,-0.1875 2.07812,-0.35938 2.82813,-0.32812 4.17188,-0.79687 0.0156,-0.48438 0.0156,-0.625 0,-1.42188 -0.65625,-2.01563 -0.90625,-0.79687 -2.67187,-0.79687 -1.65625,0 -2.45313,0.59375 -0.78125,0.57812 -1.15625,2.04687 l -2.29687,-0.3125 q 0.3125,-1.46875 1.03125,-2.375 0.71875,-0.90625 2.0625,-1.39062 1.35937,-0.5 3.14062,-0.5 1.78125,0 2.875,0.42187 1.10938,0.42188 1.625,1.04688 0.53125,0.625 0.73438,1.59375 0.125,0.59375 0.125,2.15625 v 3.125 q 0,3.26562 0.14062,4.14062 0.15625,0.85938 0.59375,1.65625 h -2.4375 q -0.375,-0.73437 -0.46875,-1.70312 z m -0.20312,-5.23438 q -1.26563,0.51563 -3.82813,0.89063 -1.4375,0.20312 -2.04687,0.46875 -0.59375,0.25 -0.92188,0.75 -0.3125,0.5 -0.3125,1.125 0,0.9375 0.70313,1.5625 0.70312,0.625 2.07812,0.625 1.34375,0 2.39063,-0.59375 1.0625,-0.59375 1.5625,-1.625 0.375,-0.79688 0.375,-2.34375 z m 5.05929,2.8125 2.32813,-0.35937 q 0.1875,1.39062 1.07812,2.14062 0.89063,0.73438 2.5,0.73438 1.60938,0 2.39063,-0.65625 0.78125,-0.65625 0.78125,-1.54688 0,-0.79687 -0.6875,-1.25 -0.48438,-0.3125 -2.39063,-0.79687 -2.57812,-0.65625 -3.57812,-1.125 -1,-0.46875 -1.51563,-1.3125 -0.51562,-0.84375 -0.51562,-1.85938 0,-0.92187 0.42187,-1.70312 0.4375,-0.79688 1.15625,-1.3125 0.54688,-0.40625 1.48438,-0.6875 0.95312,-0.28125 2.03125,-0.28125 1.625,0 2.85937,0.46875 1.23438,0.46875 1.8125,1.28125 0.59375,0.79687 0.8125,2.14062 l -2.29687,0.3125 q -0.15625,-1.07812 -0.90625,-1.67187 -0.75,-0.59375 -2.10938,-0.59375 -1.60937,0 -2.3125,0.53125 -0.6875,0.53125 -0.6875,1.25 0,0.45312 0.29688,0.8125 0.28125,0.375 0.89062,0.625 0.35938,0.14062 2.07813,0.60937 2.48437,0.65625 3.46875,1.07813 0.98437,0.42187 1.53125,1.23437 0.5625,0.79688 0.5625,2 0,1.17188 -0.6875,2.21875 -0.67188,1.03125 -1.96875,1.59375 -1.28125,0.5625 -2.90625,0.5625 -2.70313,0 -4.125,-1.10937 -1.40625,-1.125 -1.79688,-3.32813 z m 13.32813,0 2.32812,-0.35937 q 0.1875,1.39062 1.07813,2.14062 0.89062,0.73438 2.5,0.73438 1.60937,0 2.39062,-0.65625 0.78125,-0.65625 0.78125,-1.54688 0,-0.79687 -0.6875,-1.25 -0.48437,-0.3125 -2.39062,-0.79687 -2.57813,-0.65625 -3.57813,-1.125 -1,-0.46875 -1.51562,-1.3125 -0.51563,-0.84375 -0.51563,-1.85938 0,-0.92187 0.42188,-1.70312 0.4375,-0.79688 1.15625,-1.3125 0.54687,-0.40625 1.48437,-0.6875 0.95313,-0.28125 2.03125,-0.28125 1.625,0 2.85938,0.46875 1.23437,0.46875 1.8125,1.28125 0.59375,0.79687 0.8125,2.14062 l -2.29688,0.3125 q -0.15625,-1.07812 -0.90625,-1.67187 -0.75,-0.59375 -2.10937,-0.59375 -1.60938,0 -2.3125,0.53125 -0.6875,0.53125 -0.6875,1.25 0,0.45312 0.29687,0.8125 0.28125,0.375 0.89063,0.625 0.35937,0.14062 2.07812,0.60937 2.48438,0.65625 3.46875,1.07813 0.98438,0.42187 1.53125,1.23437 0.5625,0.79688 0.5625,2 0,1.17188 -0.6875,2.21875 -0.67187,1.03125 -1.96875,1.59375 -1.28125,0.5625 -2.90625,0.5625 -2.70312,0 -4.125,-1.10937 -1.40625,-1.125 -1.79687,-3.32813 z M 52.74681,11.48104 v -2.6875 h 2.34375 v 2.6875 z m 0,16.39062 V 14.04354 h 2.34375 v 13.82812 z m 5.48468,1.14063 2.28125,0.34375 q 0.14062,1.04687 0.79687,1.53125 0.85938,0.65625 2.375,0.65625 1.625,0 2.5,-0.65625 0.89063,-0.64063 1.20313,-1.8125 0.1875,-0.71875 0.17187,-3.01563 -1.53125,1.8125 -3.82812,1.8125 -2.84375,0 -4.40625,-2.04687 -1.5625,-2.0625 -1.5625,-4.9375 0,-1.98438 0.71875,-3.65625 0.71875,-1.67188 2.07812,-2.57813 1.35938,-0.92187 3.1875,-0.92187 2.45313,0 4.03125,1.98437 v -1.67187 h 2.17188 v 11.95312 q 0,3.23438 -0.65625,4.57813 -0.65625,1.34375 -2.09375,2.125 -1.42188,0.78125 -3.5,0.78125 -2.46875,0 -4,-1.10938 -1.51563,-1.10937 -1.46875,-3.35937 z m 1.9375,-8.29688 q 0,2.71875 1.07812,3.96875 1.07813,1.25 2.70313,1.25 1.625,0 2.71875,-1.23437 1.09375,-1.25 1.09375,-3.90625 0,-2.54688 -1.125,-3.82813 -1.125,-1.29687 -2.71875,-1.29687 -1.5625,0 -2.65625,1.28125 -1.09375,1.26562 -1.09375,3.76562 z m 13.30929,7.15625 V 14.04354 h 2.10938 v 1.96875 q 1.53125,-2.28125 4.40625,-2.28125 1.25,0 2.29687,0.45312 1.04688,0.45313 1.5625,1.1875 0.53125,0.71875 0.73438,1.71875 0.125,0.65625 0.125,2.28125 v 8.5 h -2.34375 v -8.40625 q 0,-1.4375 -0.28125,-2.14062 -0.26563,-0.71875 -0.96875,-1.14063 -0.6875,-0.42187 -1.625,-0.42187 -1.48438,0 -2.57813,0.95312 -1.09375,0.95313 -1.09375,3.60938 v 7.54687 z m 24.2937,-4.45312 2.42188,0.29687 q -0.57813,2.125 -2.125,3.29688 -1.54688,1.17187 -3.95313,1.17187 -3.03125,0 -4.8125,-1.85937 -1.78125,-1.875 -1.78125,-5.25 0,-3.48438 1.79688,-5.40625 1.79687,-1.9375 4.67187,-1.9375 2.76563,0 4.51563,1.89062 1.76562,1.89063 1.76562,5.3125 0,0.20313 -0.0156,0.625 h -10.3125 q 0.14062,2.28125 1.29687,3.5 1.15625,1.20313 2.89063,1.20313 1.28125,0 2.1875,-0.67188 0.92187,-0.6875 1.45312,-2.17187 z m -7.6875,-3.78125 h 7.71875 q -0.15625,-1.75 -0.89062,-2.625 -1.125,-1.34375 -2.90625,-1.34375 -1.60938,0 -2.71875,1.07812 -1.09375,1.07813 -1.20313,2.89063 z m 13.02805,8.23437 V 14.04354 h 2.10937 v 2.09375 q 0.79688,-1.46875 1.48438,-1.9375 0.6875,-0.46875 1.5,-0.46875 1.1875,0 2.40625,0.76562 l -0.79688,2.17188 q -0.85937,-0.51563 -1.71875,-0.51563 -0.76562,0 -1.39062,0.46875 -0.60938,0.45313 -0.85938,1.28125 -0.39062,1.25 -0.39062,2.73438 v 7.23437 z m 16.25146,0 V 8.79354 h 2.34375 v 19.07812 z m 5.98465,-12.32812 -0.59375,-3.5625 v -3.1875 h 2.67188 v 3.1875 l -0.625,3.5625 z m 14.5423,7.875 2.42188,0.29687 q -0.57813,2.125 -2.125,3.29688 -1.54688,1.17187 -3.95313,1.17187 -3.03125,0 -4.8125,-1.85937 -1.78125,-1.875 -1.78125,-5.25 0,-3.48438 1.79688,-5.40625 1.79687,-1.9375 4.67187,-1.9375 2.76563,0 4.51563,1.89062 1.76562,1.89063 1.76562,5.3125 0,0.20313 -0.0156,0.625 h -10.3125 q 0.14062,2.28125 1.29687,3.5 1.15625,1.20313 2.89063,1.20313 1.28125,0 2.1875,-0.67188 0.92187,-0.6875 1.45312,-2.17187 z m -7.6875,-3.78125 h 7.71875 q -0.15625,-1.75 -0.89062,-2.625 -1.125,-1.34375 -2.90625,-1.34375 -1.60938,0 -2.71875,1.07812 -1.09375,1.07813 -1.20313,2.89063 z m 13.04367,8.23437 V 14.04354 h 2.10938 v 1.96875 q 1.53125,-2.28125 4.40625,-2.28125 1.25,0 2.29687,0.45312 1.04688,0.45313 1.5625,1.1875 0.53125,0.71875 0.73438,1.71875 0.125,0.65625 0.125,2.28125 v 8.5 h -2.34375 v -8.40625 q 0,-1.4375 -0.28125,-2.14062 -0.26563,-0.71875 -0.96875,-1.14063 -0.6875,-0.42187 -1.625,-0.42187 -1.48438,0 -2.57813,0.95312 -1.09375,0.95313 -1.09375,3.60938 v 7.54687 z m 19.94995,-2.09375 0.32813,2.0625 q -0.98438,0.21875 -1.76563,0.21875 -1.26562,0 -1.96875,-0.40625 -0.70312,-0.40625 -1,-1.0625 -0.28125,-0.65625 -0.28125,-2.76562 v -7.95313 h -1.71875 v -1.82812 h 1.71875 v -3.42188 l 2.32813,-1.40625 v 4.82813 h 2.35937 v 1.82812 h -2.35937 v 8.07813 q 0,1 0.125,1.29687 0.125,0.28125 0.40625,0.45313 0.28125,0.17187 0.79687,0.17187 0.39063,0 1.03125,-0.0937 z m 2.26532,2.09375 V 14.04354 h 2.10938 v 2.09375 q 0.79687,-1.46875 1.48437,-1.9375 0.6875,-0.46875 1.5,-0.46875 1.1875,0 2.40625,0.76562 l -0.79687,2.17188 q -0.85938,-0.51563 -1.71875,-0.51563 -0.76563,0 -1.39063,0.46875 -0.60937,0.45313 -0.85937,1.28125 -0.39063,1.25 -0.39063,2.73438 v 7.23437 z m 18.36115,-4.45312 2.42187,0.29687 q -0.57812,2.125 -2.125,3.29688 -1.54687,1.17187 -3.95312,1.17187 -3.03125,0 -4.8125,-1.85937 -1.78125,-1.875 -1.78125,-5.25 0,-3.48438 1.79687,-5.40625 1.79688,-1.9375 4.67188,-1.9375 2.76562,0 4.51562,1.89062 1.76563,1.89063 1.76563,5.3125 0,0.20313 -0.0156,0.625 h -10.3125 q 0.14063,2.28125 1.29688,3.5 1.15625,1.20313 2.89062,1.20313 1.28125,0 2.1875,-0.67188 0.92188,-0.6875 1.45313,-2.17187 z m -7.6875,-3.78125 h 7.71875 q -0.15625,-1.75 -0.89063,-2.625 -1.125,-1.34375 -2.90625,-1.34375 -1.60937,0 -2.71875,1.07812 -1.09375,1.07813 -1.20312,2.89063 z m 2.51562,-7.3125 1.73438,-3.64063 h 3.0625 l -2.85938,3.64063 z m 19.99677,11.09375 2.42187,0.29687 q -0.57812,2.125 -2.125,3.29688 -1.54687,1.17187 -3.95312,1.17187 -3.03125,0 -4.8125,-1.85937 -1.78125,-1.875 -1.78125,-5.25 0,-3.48438 1.79687,-5.40625 1.79688,-1.9375 4.67188,-1.9375 2.76562,0 4.51562,1.89062 1.76563,1.89063 1.76563,5.3125 0,0.20313 -0.0156,0.625 h -10.3125 q 0.14063,2.28125 1.29688,3.5 1.15625,1.20313 2.89062,1.20313 1.28125,0 2.1875,-0.67188 0.92188,-0.6875 1.45313,-2.17187 z m -7.6875,-3.78125 h 7.71875 q -0.15625,-1.75 -0.89063,-2.625 -1.125,-1.34375 -2.90625,-1.34375 -1.60937,0 -2.71875,1.07812 -1.09375,1.07813 -1.20312,2.89063 z m 29.41839,8.23437 v -1.75 q -1.3125,2.0625 -3.85937,2.0625 -1.65625,0 -3.04688,-0.90625 -1.375,-0.92187 -2.14062,-2.54687 -0.76563,-1.64063 -0.76563,-3.75 0,-2.07813 0.6875,-3.76563 0.70313,-1.6875 2.07813,-2.57812 1.375,-0.90625 3.07812,-0.90625 1.25,0 2.21875,0.53125 0.98438,0.53125 1.59375,1.375 V 8.79354 h 2.34375 v 19.07812 z m -7.40625,-6.89062 q 0,2.64062 1.125,3.96875 1.125,1.3125 2.64063,1.3125 1.53125,0 2.60937,-1.25 1.07813,-1.26563 1.07813,-3.84375 0,-2.84375 -1.09375,-4.17188 -1.09375,-1.32812 -2.70313,-1.32812 -1.54687,0 -2.60937,1.28125 -1.04688,1.28125 -1.04688,4.03125 z m 22.7312,2.4375 2.42188,0.29687 q -0.57813,2.125 -2.125,3.29688 -1.54688,1.17187 -3.95313,1.17187 -3.03125,0 -4.8125,-1.85937 -1.78125,-1.875 -1.78125,-5.25 0,-3.48438 1.79688,-5.40625 1.79687,-1.9375 4.67187,-1.9375 2.76563,0 4.51563,1.89062 1.76562,1.89063 1.76562,5.3125 0,0.20313 -0.0156,0.625 h -10.3125 q 0.14062,2.28125 1.29687,3.5 1.15625,1.20313 2.89063,1.20313 1.28125,0 2.1875,-0.67188 0.92187,-0.6875 1.45312,-2.17187 z m -7.6875,-3.78125 h 7.71875 q -0.15625,-1.75 -0.89062,-2.625 -1.125,-1.34375 -2.90625,-1.34375 -1.60938,0 -2.71875,1.07812 -1.09375,1.07813 -1.20313,2.89063 z"
     fill-rule="nonzero"
     id="path7130" />
  <path
     fill="#000000"
     d="M 11.20313,59.87166 V 40.79353 h 2.34375 v 19.07813 z m 5.98465,-12.32813 -0.59375,-3.5625 v -3.1875 h 2.67187 v 3.1875 l -0.625,3.5625 z m 14.13605,12.32813 v -2.03125 q -1.60938,2.34375 -4.375,2.34375 -1.23438,0 -2.29688,-0.46875 -1.0625,-0.46875 -1.57812,-1.17188 -0.5,-0.71875 -0.71875,-1.75 -0.14063,-0.6875 -0.14063,-2.1875 v -8.5625 h 2.34375 v 7.67188 q 0,1.82812 0.14063,2.46875 0.21875,0.92187 0.9375,1.45312 0.71875,0.53125 1.76562,0.53125 1.0625,0 1.98438,-0.53125 0.92187,-0.54687 1.29687,-1.46875 0.39063,-0.9375 0.39063,-2.71875 v -7.40625 h 2.34375 v 13.82813 z m 10.88742,-2.09375 0.32812,2.0625 q -0.98437,0.21875 -1.76562,0.21875 -1.26563,0 -1.96875,-0.40625 -0.70313,-0.40625 -1,-1.0625 -0.28125,-0.65625 -0.28125,-2.76563 V 47.87166 H 35.805 v -1.82813 h 1.71875 v -3.42187 l 2.32812,-1.40625 v 4.82812 h 2.35938 v 1.82813 h -2.35938 v 8.07812 q 0,1 0.125,1.29688 0.125,0.28125 0.40625,0.45312 0.28125,0.17188 0.79688,0.17188 0.39062,0 1.03125,-0.0937 z m 2.2966,-14.29688 v -2.6875 h 2.34375 v 2.6875 z m 0,16.39063 V 46.04353 h 2.34375 v 13.82813 z m 5.85965,0 V 40.79353 h 2.34375 v 19.07813 z m 5.98468,-16.39063 v -2.6875 h 2.34375 v 2.6875 z m 0,16.39063 V 46.04353 h 2.34375 v 13.82813 z m 4.96902,-4.125 2.32813,-0.35938 q 0.1875,1.39063 1.07812,2.14063 0.89063,0.73437 2.5,0.73437 1.60938,0 2.39063,-0.65625 0.78125,-0.65625 0.78125,-1.54687 0,-0.79688 -0.6875,-1.25 -0.48438,-0.3125 -2.39063,-0.79688 -2.57812,-0.65625 -3.57812,-1.125 -1,-0.46875 -1.51563,-1.3125 -0.51562,-0.84375 -0.51562,-1.85937 0,-0.92188 0.42187,-1.70313 0.4375,-0.79687 1.15625,-1.3125 0.54688,-0.40625 1.48438,-0.6875 0.95312,-0.28125 2.03125,-0.28125 1.625,0 2.85937,0.46875 1.23438,0.46875 1.8125,1.28125 0.59375,0.79688 0.8125,2.14063 l -2.29687,0.3125 q -0.15625,-1.07813 -0.90625,-1.67188 -0.75,-0.59375 -2.10938,-0.59375 -1.60937,0 -2.3125,0.53125 -0.6875,0.53125 -0.6875,1.25 0,0.45313 0.29688,0.8125 0.28125,0.375 0.89062,0.625 0.35938,0.14063 2.07813,0.60938 2.48437,0.65625 3.46875,1.07812 0.98437,0.42188 1.53125,1.23438 0.5625,0.79687 0.5625,2 0,1.17187 -0.6875,2.21875 -0.67188,1.03125 -1.96875,1.59375 -1.28125,0.5625 -2.90625,0.5625 -2.70313,0 -4.125,-1.10938 -1.40625,-1.125 -1.79688,-3.32812 z m 23.29688,2.42187 q -1.3125,1.10938 -2.51563,1.5625 -1.20312,0.45313 -2.57812,0.45313 -2.28125,0 -3.5,-1.10938 -1.21875,-1.10937 -1.21875,-2.84375 0,-1.01562 0.45312,-1.85937 0.46875,-0.84375 1.21875,-1.34375 0.75,-0.51563 1.6875,-0.76563 0.6875,-0.1875 2.07813,-0.35937 2.82812,-0.32813 4.17187,-0.79688 0.0156,-0.48437 0.0156,-0.625 0,-1.42187 -0.65625,-2.01562 -0.90625,-0.79688 -2.67188,-0.79688 -1.65625,0 -2.45312,0.59375 -0.78125,0.57813 -1.15625,2.04688 l -2.29688,-0.3125 q 0.3125,-1.46875 1.03125,-2.375 0.71875,-0.90625 2.0625,-1.39063 1.35938,-0.5 3.14063,-0.5 1.78125,0 2.875,0.42188 1.10937,0.42187 1.625,1.04687 0.53125,0.625 0.73437,1.59375 0.125,0.59375 0.125,2.15625 v 3.125 q 0,3.26563 0.14063,4.14063 0.15625,0.85937 0.59375,1.65625 h -2.4375 q -0.375,-0.73438 -0.46875,-1.70313 z m -0.20313,-5.23437 q -1.26562,0.51562 -3.82812,0.89062 -1.4375,0.20313 -2.04688,0.46875 -0.59375,0.25 -0.92187,0.75 -0.3125,0.5 -0.3125,1.125 0,0.9375 0.70312,1.5625 0.70313,0.625 2.07813,0.625 1.34375,0 2.39062,-0.59375 1.0625,-0.59375 1.5625,-1.625 0.375,-0.79687 0.375,-2.34375 z m 11.12183,4.84375 0.32812,2.0625 q -0.98437,0.21875 -1.76562,0.21875 -1.26563,0 -1.96875,-0.40625 -0.70313,-0.40625 -1,-1.0625 -0.28125,-0.65625 -0.28125,-2.76563 v -7.95312 h -1.71875 v -1.82813 h 1.71875 v -3.42187 l 2.32812,-1.40625 v 4.82812 h 2.35938 v 1.82813 H 93.1774 v 8.07812 q 0,1 0.125,1.29688 0.125,0.28125 0.40625,0.45312 0.28125,0.17188 0.79688,0.17188 0.39062,0 1.03125,-0.0937 z m 11.74969,-2.35938 2.42188,0.29688 q -0.57813,2.125 -2.125,3.29687 -1.54688,1.17188 -3.95313,1.17188 -3.03125,0 -4.8125,-1.85938 -1.78125,-1.875 -1.78125,-5.25 0,-3.48437 1.79688,-5.40625 1.79687,-1.9375 4.67187,-1.9375 2.76563,0 4.51563,1.89063 1.76562,1.89062 1.76562,5.3125 0,0.20312 -0.0156,0.625 h -10.3125 q 0.14062,2.28125 1.29687,3.5 1.15625,1.20312 2.89063,1.20312 1.28125,0 2.1875,-0.67187 0.92187,-0.6875 1.45312,-2.17188 z m -7.6875,-3.78125 h 7.71875 q -0.15625,-1.75 -0.89062,-2.625 -1.125,-1.34375 -2.90625,-1.34375 -1.60938,0 -2.71875,1.07813 -1.09375,1.07812 -1.20313,2.89062 z m 22.1062,8.23438 v -2.03125 q -1.60937,2.34375 -4.375,2.34375 -1.23437,0 -2.29687,-0.46875 -1.0625,-0.46875 -1.57813,-1.17188 -0.5,-0.71875 -0.71875,-1.75 -0.14062,-0.6875 -0.14062,-2.1875 v -8.5625 h 2.34375 v 7.67188 q 0,1.82812 0.14062,2.46875 0.21875,0.92187 0.9375,1.45312 0.71875,0.53125 1.76563,0.53125 1.0625,0 1.98437,-0.53125 0.92188,-0.54687 1.29688,-1.46875 0.39062,-0.9375 0.39062,-2.71875 v -7.40625 h 2.34375 v 13.82813 z m 5.7468,0 V 46.04353 h 2.10938 v 2.09375 q 0.79687,-1.46875 1.48437,-1.9375 0.6875,-0.46875 1.5,-0.46875 1.1875,0 2.40625,0.76563 l -0.79687,2.17187 q -0.85938,-0.51562 -1.71875,-0.51562 -0.76563,0 -1.39063,0.46875 -0.60937,0.45312 -0.85937,1.28125 -0.39063,1.25 -0.39063,2.73437 v 7.23438 z m 25.32956,-1.70313 q -1.31247,1.10938 -2.51559,1.5625 -1.20313,0.45313 -2.57813,0.45313 -2.28125,0 -3.5,-1.10938 -1.21875,-1.10937 -1.21875,-2.84375 0,-1.01562 0.45313,-1.85937 0.46875,-0.84375 1.21875,-1.34375 0.75,-0.51563 1.6875,-0.76563 0.6875,-0.1875 2.07812,-0.35937 2.82813,-0.32813 4.17185,-0.79688 0.0156,-0.48437 0.0156,-0.625 0,-1.42187 -0.65622,-2.01562 -0.90625,-0.79688 -2.67187,-0.79688 -1.65625,0 -2.45313,0.59375 -0.78125,0.57813 -1.15625,2.04688 l -2.29687,-0.3125 q 0.3125,-1.46875 1.03125,-2.375 0.71875,-0.90625 2.0625,-1.39063 1.35937,-0.5 3.14062,-0.5 1.78125,0 2.87497,0.42188 1.10938,0.42187 1.625,1.04687 0.53125,0.625 0.73438,1.59375 0.125,0.59375 0.125,2.15625 v 3.125 q 0,3.26563 0.14062,4.14063 0.15625,0.85937 0.59375,1.65625 h -2.4375 q -0.375,-0.73438 -0.46875,-1.70313 z m -0.20312,-5.23437 q -1.2656,0.51562 -3.8281,0.89062 -1.4375,0.20313 -2.04687,0.46875 -0.59375,0.25 -0.92188,0.75 -0.3125,0.5 -0.3125,1.125 0,0.9375 0.70313,1.5625 0.70312,0.625 2.07812,0.625 1.34375,0 2.39063,-0.59375 1.0625,-0.59375 1.56247,-1.625 0.375,-0.79687 0.375,-2.34375 z m -1.28122,-8.60938 h -1.875 l -3.01563,-3.64062 h 3.14063 z M 165.9343,59.87166 V 40.79353 h 2.34375 v 19.07813 z m 15.00031,-1.70313 q -1.3125,1.10938 -2.51563,1.5625 -1.20312,0.45313 -2.57812,0.45313 -2.28125,0 -3.5,-1.10938 -1.21875,-1.10937 -1.21875,-2.84375 0,-1.01562 0.45312,-1.85937 0.46875,-0.84375 1.21875,-1.34375 0.75,-0.51563 1.6875,-0.76563 0.6875,-0.1875 2.07813,-0.35937 2.82812,-0.32813 4.17187,-0.79688 0.0156,-0.48437 0.0156,-0.625 0,-1.42187 -0.65625,-2.01562 -0.90625,-0.79688 -2.67188,-0.79688 -1.65625,0 -2.45312,0.59375 -0.78125,0.57813 -1.15625,2.04688 l -2.29688,-0.3125 q 0.3125,-1.46875 1.03125,-2.375 0.71875,-0.90625 2.0625,-1.39063 1.35938,-0.5 3.14063,-0.5 1.78125,0 2.875,0.42188 1.10937,0.42187 1.625,1.04687 0.53125,0.625 0.73437,1.59375 0.125,0.59375 0.125,2.15625 v 3.125 q 0,3.26563 0.14063,4.14063 0.15625,0.85937 0.59375,1.65625 h -2.4375 q -0.375,-0.73438 -0.46875,-1.70313 z m -0.20313,-5.23437 q -1.26562,0.51562 -3.82812,0.89062 -1.4375,0.20313 -2.04688,0.46875 -0.59375,0.25 -0.92187,0.75 -0.3125,0.5 -0.3125,1.125 0,0.9375 0.70312,1.5625 0.70313,0.625 2.07813,0.625 1.34375,0 2.39062,-0.59375 1.0625,-0.59375 1.5625,-1.625 0.375,-0.79687 0.375,-2.34375 z"
     fill-rule="nonzero"
     id="path7132" />
  <path
     fill="#000000"
     d="m 15.09376,91.871663 -5.25,-13.828133 h 2.46875 l 2.96875,8.281253 q 0.48438,1.34375 0.89063,2.78125 0.29687,-1.09375 0.85937,-2.625 l 3.07813,-8.437503 h 2.40625 l -5.23438,13.828133 z m 18.51563,-1.70313 q -1.3125,1.10938 -2.51563,1.5625 -1.20312,0.45313 -2.57812,0.45313 -2.28125,0 -3.5,-1.10938 -1.21875,-1.10937 -1.21875,-2.84375 0,-1.01562 0.45312,-1.85937 0.46875,-0.84375 1.21875,-1.34375 0.75,-0.51563 1.6875,-0.76563 0.6875,-0.1875 2.07813,-0.35937 2.82812,-0.32813 4.17187,-0.79688 0.0156,-0.48437 0.0156,-0.625003 0,-1.42187 -0.65625,-2.01562 -0.90625,-0.79688 -2.67188,-0.79688 -1.65625,0 -2.45312,0.59375 -0.78125,0.57813 -1.15625,2.04688 l -2.29688,-0.3125 q 0.3125,-1.46875 1.03125,-2.375 0.71875,-0.90625 2.0625,-1.39063 1.35938,-0.5 3.14063,-0.5 1.78125,0 2.875,0.42188 1.10937,0.42187 1.625,1.04687 0.53125,0.625 0.73437,1.59375 0.125,0.59375 0.125,2.156253 v 3.125 q 0,3.26563 0.14063,4.14063 0.15625,0.85937 0.59375,1.65625 h -2.4375 q -0.375,-0.73438 -0.46875,-1.70313 z m -0.20313,-5.23437 q -1.26562,0.51562 -3.82812,0.89062 -1.4375,0.20313 -2.04688,0.46875 -0.59375,0.25 -0.92187,0.75 -0.3125,0.5 -0.3125,1.125 0,0.9375 0.70312,1.5625 0.70313,0.625 2.07813,0.625 1.34375,0 2.39062,-0.59375 1.0625,-0.59375 1.5625,-1.625 0.375,-0.79687 0.375,-2.34375 z m 5.98117,6.9375 V 78.04353 h 2.10938 v 2.09375 q 0.79687,-1.46875 1.48437,-1.9375 0.6875,-0.46875 1.5,-0.46875 1.1875,0 2.40625,0.76563 l -0.79687,2.17187 q -0.85938,-0.51562 -1.71875,-0.51562 -0.76563,0 -1.39063,0.46875 -0.60937,0.45312 -0.85937,1.28125 -0.39063,1.250003 -0.39063,2.734373 v 7.23438 z M 48.29542,75.48103 v -2.6875 h 2.34375 v 2.6875 z m 0,16.390633 V 78.04353 h 2.34375 v 13.828133 z m 14.93781,-1.70313 q -1.3125,1.10938 -2.51563,1.5625 -1.20312,0.45313 -2.57812,0.45313 -2.28125,0 -3.5,-1.10938 -1.21875,-1.10937 -1.21875,-2.84375 0,-1.01562 0.45312,-1.85937 0.46875,-0.84375 1.21875,-1.34375 0.75,-0.51563 1.6875,-0.76563 0.6875,-0.1875 2.07813,-0.35937 2.82812,-0.32813 4.17187,-0.79688 0.0156,-0.48437 0.0156,-0.625003 0,-1.42187 -0.65625,-2.01562 -0.90625,-0.79688 -2.67188,-0.79688 -1.65625,0 -2.45312,0.59375 -0.78125,0.57813 -1.15625,2.04688 l -2.29688,-0.3125 q 0.3125,-1.46875 1.03125,-2.375 0.71875,-0.90625 2.0625,-1.39063 1.35938,-0.5 3.14063,-0.5 1.78125,0 2.875,0.42188 1.10937,0.42187 1.625,1.04687 0.53125,0.625 0.73437,1.59375 0.125,0.59375 0.125,2.156253 v 3.125 q 0,3.26563 0.14063,4.14063 0.15625,0.85937 0.59375,1.65625 h -2.4375 q -0.375,-0.73438 -0.46875,-1.70313 z m -0.20313,-5.23437 q -1.26562,0.51562 -3.82812,0.89062 -1.4375,0.20313 -2.04688,0.46875 -0.59375,0.25 -0.92187,0.75 -0.3125,0.5 -0.3125,1.125 0,0.9375 0.70312,1.5625 0.70313,0.625 2.07813,0.625 1.34375,0 2.39062,-0.59375 1.0625,-0.59375 1.5625,-1.625 0.375,-0.79687 0.375,-2.34375 z m 8.16867,6.9375 H 69.0269 V 72.79353 h 2.34375 v 6.79688 q 1.48437,-1.85938 3.78125,-1.85938 1.28125,0 2.40625,0.51563 1.14062,0.51562 1.875,1.45312 0.75,0.92188 1.15625,2.25 0.42187,1.312503 0.42187,2.796883 0,3.5625 -1.76562,5.5 -1.75,1.9375 -4.21875,1.9375 -2.4375,0 -3.82813,-2.04688 z m -0.0312,-7.01563 q 0,2.48438 0.67188,3.59375 1.10937,1.8125 3,1.8125 1.53125,0 2.65625,-1.32812 1.125,-1.34375 1.125,-3.98438 0,-2.703123 -1.07813,-3.984373 -1.07812,-1.29688 -2.59375,-1.29688 -1.54687,0 -2.67187,1.32813 -1.10938,1.32812 -1.10938,3.859373 z m 12.63745,7.01563 V 72.79353 h 2.34375 v 19.078133 z m 15.43778,-4.45313 2.42187,0.29688 q -0.57812,2.125 -2.125,3.29687 -1.54687,1.17188 -3.95312,1.17188 -3.03125,0 -4.8125,-1.85938 -1.78125,-1.875 -1.78125,-5.25 0,-3.484373 1.79687,-5.406253 1.79688,-1.9375 4.67188,-1.9375 2.76562,0 4.51562,1.89063 1.76563,1.89062 1.76563,5.312503 0,0.20312 -0.0156,0.625 H 91.4147 q 0.14063,2.28125 1.29688,3.5 1.15625,1.20312 2.89062,1.20312 1.28125,0 2.1875,-0.67187 0.92188,-0.6875 1.45313,-2.17188 z m -7.6875,-3.78125 h 7.71875 Q 99.1178,81.88728 98.38342,81.01228 q -1.125,-1.34375 -2.90625,-1.34375 -1.60937,0 -2.71875,1.07813 -1.09375,1.07812 -1.20312,2.890623 z m 29.41839,8.23438 v -1.75 q -1.3125,2.0625 -3.85937,2.0625 -1.65625,0 -3.04688,-0.90625 -1.375,-0.92188 -2.14062,-2.54688 -0.76563,-1.64062 -0.76563,-3.75 0,-2.07812 0.6875,-3.765623 0.70313,-1.6875 2.07813,-2.57813 1.375,-0.90625 3.07812,-0.90625 1.25,0 2.21875,0.53125 0.98438,0.53125 1.59375,1.375 v -6.84375 h 2.34375 v 19.078133 z m -7.40625,-6.89063 q 0,2.64063 1.125,3.96875 1.125,1.3125 2.64063,1.3125 1.53125,0 2.60937,-1.25 1.07813,-1.26562 1.07813,-3.84375 0,-2.843753 -1.09375,-4.171873 -1.09375,-1.32813 -2.70313,-1.32813 -1.54687,0 -2.60937,1.28125 -1.04688,1.28125 -1.04688,4.031253 z m 13.27808,-9.500003 v -2.6875 h 2.34375 v 2.6875 z m 0,16.390633 V 78.04353 h 2.34375 v 13.828133 z m 5.8909,0 V 78.04353 h 2.10937 v 2.09375 q 0.79688,-1.46875 1.48438,-1.9375 0.6875,-0.46875 1.5,-0.46875 1.1875,0 2.40625,0.76563 l -0.79688,2.17187 q -0.85937,-0.51562 -1.71875,-0.51562 -0.76562,0 -1.39062,0.46875 -0.60938,0.45312 -0.85938,1.28125 -0.39062,1.250003 -0.39062,2.734373 v 7.23438 z m 18.36111,-4.45313 2.42191,0.29688 q -0.57813,2.125 -2.12503,3.29687 -1.54688,1.17188 -3.95313,1.17188 -3.03125,0 -4.8125,-1.85938 -1.78125,-1.875 -1.78125,-5.25 0,-3.484373 1.79688,-5.406253 1.79687,-1.9375 4.67187,-1.9375 2.76563,0 4.51563,1.89063 1.76565,1.89062 1.76565,5.312503 0,0.20312 -0.0156,0.625 h -10.3126 q 0.14062,2.28125 1.29687,3.5 1.15625,1.20312 2.89063,1.20312 1.28125,0 2.1875,-0.67187 0.92187,-0.6875 1.45312,-2.17188 z m -7.6875,-3.78125 h 7.71875 q -0.15625,-1.750003 -0.89062,-2.625003 -1.125,-1.34375 -2.90625,-1.34375 -1.60938,0 -2.71875,1.07813 -1.09375,1.07812 -1.20313,2.890623 z m 22.07492,3.17188 2.29688,0.29687 q -0.375,2.39063 -1.9375,3.73438 -1.54688,1.34375 -3.8125,1.34375 -2.84375,0 -4.5625,-1.84375 -1.71875,-1.85938 -1.71875,-5.32813 0,-2.23437 0.73437,-3.906253 0.75,-1.6875 2.26563,-2.53125 1.51562,-0.84375 3.29687,-0.84375 2.25,0 3.67188,1.14063 1.4375,1.14062 1.84375,3.23437 l -2.28125,0.35938 q -0.32813,-1.39063 -1.15625,-2.09375 -0.8125,-0.70313 -1.98438,-0.70313 -1.78125,0 -2.89062,1.26563 -1.09375,1.26562 -1.09375,4.015623 0,2.78125 1.0625,4.04688 1.0625,1.26562 2.78125,1.26562 1.39062,0 2.3125,-0.84375 0.92187,-0.85937 1.17187,-2.60937 z m 9.42188,2.96875 0.32812,2.0625 q -0.98437,0.21875 -1.76562,0.21875 -1.26563,0 -1.96875,-0.40625 -0.70313,-0.40625 -1,-1.0625 -0.28125,-0.65625 -0.28125,-2.76563 V 79.87166 h -1.71875 v -1.82813 h 1.71875 v -3.42187 l 2.32812,-1.40625 v 4.82812 h 2.35938 v 1.82813 h -2.35938 v 8.078123 q 0,1 0.125,1.29688 0.125,0.28125 0.40625,0.45312 0.28125,0.17188 0.79688,0.17188 0.39062,0 1.03125,-0.0937 z m 2.29663,-14.296883 v -2.6875 h 2.34375 v 2.6875 z m 0,16.390633 V 78.04353 h 2.34375 v 13.828133 z m 5.04712,-6.90625 q 0,-3.843753 2.125,-5.687503 1.78125,-1.54688 4.34375,-1.54688 2.85937,0 4.65625,1.875 1.8125,1.85938 1.8125,5.156253 0,2.67188 -0.79688,4.20313 -0.79687,1.53125 -2.32812,2.375 -1.53125,0.84375 -3.34375,0.84375 -2.89063,0 -4.6875,-1.85938 -1.78125,-1.85937 -1.78125,-5.35937 z m 2.40625,0 q 0,2.65625 1.15625,3.98437 1.15625,1.3125 2.90625,1.3125 1.75,0 2.90625,-1.32812 1.15625,-1.32813 1.15625,-4.04688 0,-2.562503 -1.17188,-3.890623 -1.15625,-1.32813 -2.89062,-1.32813 -1.75,0 -2.90625,1.32813 -1.15625,1.3125 -1.15625,3.968753 z m 13.27807,6.90625 V 78.04353 h 2.10938 v 1.96875 q 1.53125,-2.28125 4.40625,-2.28125 1.25,0 2.29687,0.45313 1.04688,0.45312 1.5625,1.1875 0.53125,0.71875 0.73438,1.71875 0.125,0.65625 0.125,2.281253 v 8.5 h -2.34375 v -8.40625 q 0,-1.437503 -0.28125,-2.140633 -0.26563,-0.71875 -0.96875,-1.14062 -0.6875,-0.42188 -1.625,-0.42188 -1.48438,0 -2.57813,0.95313 -1.09375,0.95312 -1.09375,3.609373 v 7.54688 z"
     fill-rule="nonzero"
     id="path7134" />
</svg>
